<?xml version="1.0" encoding="utf-8"?>
<!-- Generator: Adobe Illustrator 16.0.0, SVG Export Plug-In . SVG Version: 6.00 Build 0)  -->
<!DOCTYPE svg PUBLIC "-//W3C//DTD SVG 1.1//EN" "http://www.w3.org/Graphics/SVG/1.1/DTD/svg11.dtd">
<svg version="1.1" id="Layer_1" xmlns="http://www.w3.org/2000/svg" xmlns:xlink="http://www.w3.org/1999/xlink" x="0px" y="0px"
	 width="496px" height="496px" viewBox="0 0 496 496" enable-background="new 0 0 496 496" xml:space="preserve">
<g>
	<path fill="#838F9B" d="M464,296.871v64c0,8.801-7.199,16-16,16h-24v-80H464z"/>
	<path fill="#FFB530" d="M424,376.871v64h-96l-16-16H136l-16,16H24v-240c0-17.68,14.32-32,32-32h336c17.68,0,32,14.32,32,32V376.871
		z M392,384.871v-176c0-4.398-3.602-8-8-8H56v192h328C388.398,392.871,392,389.274,392,384.871z"/>
	<path fill="#CCD1D9" d="M440,456.871v32H8v-32c0-8.801,7.199-16,16-16h96l16-16h176l16,16h96
		C432.801,440.871,440,448.071,440,456.871z"/>
	<g>
		<path fill="#E5685C" d="M392,208.871v24H280v-32h104C388.398,200.871,392,204.473,392,208.871z"/>
		<path fill="#E5685C" d="M168,360.871h112v32H168V360.871z"/>
		<path fill="#E5685C" d="M168,200.871v32H56v-24c0-4.398,3.602-8,8-8H168z"/>
	</g>
	<path fill="#CCD1D9" d="M56,384.871v-152h112v160H64C59.602,392.871,56,389.274,56,384.871z"/>
	<path fill="#CCD1D9" d="M280,360.871v-128h112v152c0,4.402-3.602,8-8,8H280V360.871z"/>
	<path fill="#CCD1D9" d="M168,360.871v-160h112v160H168z"/>
	<path fill="#EAD7A2" d="M336,168.871H112l-32-128l87.922,72l56-96l56.078,96l88-72L336,168.871z"/>
	<path fill="#FFB530" d="M240,120.871c0,8.836-7.164,16-16,16s-16-7.164-16-16s7.164-16,16-16S240,112.035,240,120.871z"/>
	<path fill="#FFB530" d="M488,112.871c0,13.254-10.746,24-24,24s-24-10.746-24-24s10.746-24,24-24S488,99.617,488,112.871z"/>
	<path d="M224,96.871c-13.23,0-24,10.77-24,24c0,13.234,10.77,24,24,24s24-10.766,24-24C248,107.641,237.23,96.871,224,96.871z
		 M224,128.871c-4.414,0-8-3.59-8-8c0-4.406,3.586-8,8-8s8,3.594,8,8C232,125.281,228.414,128.871,224,128.871z"/>
	<path d="M152,136.871c0,4.418-3.582,8-8,8s-8-3.582-8-8s3.582-8,8-8S152,132.453,152,136.871z"/>
	<path d="M312,136.871c0,4.418-3.582,8-8,8s-8-3.582-8-8s3.582-8,8-8S312,132.453,312,136.871z"/>
	<path d="M496,112.871c0-17.648-14.352-32-32-32s-32,14.352-32,32c0,14.863,10.23,27.289,24,30.863v145.137h-24v-88
		c0-22.055-17.945-40-40-40h-45.762l35.379-141.473l-99.457,81.344L223.938,1l-58.176,99.742L66.383,19.383l35.379,141.488H56
		c-22.055,0-40,17.945-40,40v233.473c-9.289,3.313-16,12.113-16,22.527v40h448v-40c0-10.414-6.711-19.215-16-22.527v-49.473h16
		c13.23,0,24-10.766,24-24V143.735C485.77,140.16,496,127.735,496,112.871z M93.617,62.36L170.129,125l53.809-92.258l53.84,92.25
		l76.598-62.656l-24.613,98.535H118.238L93.617,62.36z M56,176.871h336c13.23,0,24,10.77,24,24v232h-84.688l-16-16H132.688l-16,16
		H32v-232C32,187.641,42.77,176.871,56,176.871z M432,480.871H16v-24c0-4.406,3.586-8,8-8h99.313l16-16h169.375l16,16H424
		c4.414,0,8,3.594,8,8V480.871z M448,368.871h-16v-64h24v56C456,365.281,452.414,368.871,448,368.871z M464,128.871
		c-8.824,0-16-7.176-16-16s7.176-16,16-16s16,7.176,16,16S472.824,128.871,464,128.871z"/>
	<path d="M160,400.871h224c8.824,0,16-7.176,16-16v-176c0-8.824-7.176-16-16-16H48v208H160z M64,384.871v-144h96v144H64z
		 M176,384.871v-16h96v16H176z M288,384.871v-144h96l0.008,144H288z M384,208.871v16h-96v-16H384z M272,208.871v144h-96v-144H272z
		 M160,208.871v16H64v-16H160z"/>
	<path d="M80,288.871h46.848l-37.84,68.113l13.984,7.777L144,290.946v-18.074H80V288.871z"/>
	<path d="M304,272.871v16h46.848l-37.84,68.113l13.984,7.777L368,290.946v-18.074H304z"/>
	<path d="M201.008,324.985l13.984,7.777L256,258.946v-18.074h-64v16h46.848L201.008,324.985z"/>
	<path d="M216,448.871h16v16h-16V448.871z"/>
	<path d="M160,448.871h16v16h-16V448.871z"/>
	<path d="M272,448.871h16v16h-16V448.871z"/>
</g>
</svg>
