<?xml version="1.0" encoding="utf-8"?>
<!-- Generator: Adobe Illustrator 16.0.0, SVG Export Plug-In . SVG Version: 6.00 Build 0)  -->
<!DOCTYPE svg PUBLIC "-//W3C//DTD SVG 1.1//EN" "http://www.w3.org/Graphics/SVG/1.1/DTD/svg11.dtd">
<svg version="1.1" id="Layer_1" xmlns="http://www.w3.org/2000/svg" xmlns:xlink="http://www.w3.org/1999/xlink" x="0px" y="0px"
	 width="480px" height="480px" viewBox="0 0 480 480" enable-background="new 0 0 480 480" xml:space="preserve">
<path fill="#FFB531" d="M358.762,384H121.238c-10.832,0-20.93-5.48-26.832-14.563C88.504,360.352,87.598,348.899,92,339l12-27V168
	c0-53.02,42.98-96,96-96h80c53.02,0,96,42.98,96,96v144l12,27c4.402,9.898,3.496,21.352-2.406,30.438
	C379.691,378.52,369.594,384,358.762,384z"/>
<path fill="#FFA912" d="M388,339l-12-27V168c0.008-21.289-7.102-41.973-20.191-58.762
	c-52.008,148.504-165.184,233.16-238.906,274.473c1.438,0.191,2.887,0.289,4.336,0.289h237.523c10.832,0,20.93-5.48,26.832-14.563
	C391.496,360.352,392.402,348.899,388,339z"/>
<path fill="#FFCB73" d="M172,119.512l-8-13.848c5.641-3.262,11.699-5.746,18.008-7.383l4,15.488
	C181.098,115.035,176.387,116.965,172,119.512z"/>
<path fill="#FFCB73" d="M144,200h-16v-32c-0.055-19.473,7.844-38.121,21.863-51.633l11.145,11.473
	C150.102,138.352,143.961,152.856,144,168V200z"/>
<path fill="#FFB531" d="M280,72h-80L168,8h144L280,72z"/>
<path fill="#F58F00" d="M256,200h-32c-8.836,0-16-7.164-16-16s7.164-16,16-16h56v-16h-32v-16h-16v16h-8c-17.672,0-32,14.328-32,32
	s14.328,32,32,32h32c8.836,0,16,7.164,16,16s-7.164,16-16,16h-56v16h32v16h16v-16h8c17.672,0,32-14.328,32-32S273.672,200,256,200z"
	/>
<path fill="#FEC9A3" d="M404.961,325.641C363.727,293.567,306.648,291.301,263,320h-63c-17.672,0-32,14.328-32,32s14.328,32,32,32
	h-16L59.391,321.602c-11.836-5.93-26.008-4.652-36.598,3.293l-0.402,0.297C13.328,331.965,7.992,342.621,8,353.938v0.84
	c0.008,13.09,7.16,25.129,18.656,31.391l135.863,74.113C176.617,467.969,192.422,472,208.48,472H408V328L404.961,325.641z"/>
<path fill="#348FD9" d="M408,328h64v144h-64V328z"/>
<path fill="#3086CD" d="M408,424h64v48h-64V424z"/>
<path fill="#1A5485" d="M432,424h16v16h-16V424z"/>
<path fill="#FEB784" d="M296,392h-96c-4.418,0-8-3.582-8-8s3.582-8,8-8h96c4.418,0,8,3.582,8,8S300.418,392,296,392z"/>
<path d="M384,280V168c0.113-52.625-39.207-96.988-91.465-103.199l26.664-53.227c1.242-2.484,1.105-5.438-0.363-7.801
	C317.367,1.414,314.781-0.015,312,0H168c-2.773,0-5.348,1.434-6.809,3.793c-1.457,2.355-1.59,5.301-0.352,7.781l26.633,53.227
	C135.301,71.176,96.066,115.442,96,168v144h16V168c0.059-48.578,39.422-87.941,88-88h80c23.348-0.035,45.754,9.227,62.262,25.738
	C358.773,122.246,368.035,144.653,368,168v112H384z M275.055,64h-70.109l-24-48h118.109L275.055,64z"/>
<path d="M172,119.512c4.379-2.543,9.086-4.477,13.992-5.742l-4-15.488c-6.309,1.637-12.367,4.121-18.008,7.383L172,119.512z"/>
<path d="M128,200h16v-32c-0.039-15.145,6.102-29.648,17.008-40.16l-11.145-11.473C135.844,129.879,127.945,148.528,128,168V200z"/>
<path d="M22.816,393.184l135.816,74.074c15.285,8.355,32.426,12.738,49.848,12.742H472c4.418,0,8-3.582,8-8V328c0-4.418-3.582-8-8-8
	h-61.223l-0.914-0.711c-9.395-7.336-19.781-13.305-30.848-17.738c-38.816-15.84-82.895-11.945-118.336,10.449H200
	c-12.738-0.004-24.719,6.063-32.258,16.332c-7.535,10.27-9.73,23.516-5.91,35.668l-98.895-49.551
	c-14.688-7.375-32.301-5.691-45.32,4.336C6.547,327.078,0.023,340.09,0,353.922v0.879C-0.02,370.813,8.738,385.551,22.816,393.184z
	 M416,336h48v128h-48V336z M16,353.922c0.059-8.957,4.359-17.359,11.594-22.641c8.145-6.145,19.074-7.125,28.184-2.527
	l124.648,62.398c1.105,0.559,2.332,0.848,3.574,0.848h120v-16H200c-13.254,0-24-10.746-24-24s10.746-24,24-24h63.039
	c1.566-0.004,3.098-0.461,4.41-1.32c31.344-20.641,70.855-24.492,105.598-10.289c9.668,3.875,18.742,9.09,26.953,15.488V464H208.48
	c-14.742-0.004-29.242-3.715-42.176-10.785L30.449,379.129c-8.922-4.84-14.469-14.18-14.449-24.328V353.922z"/>
<path d="M432,424h16v16h-16V424z"/>
<path d="M248,280v-16h8c17.672,0,32-14.328,32-32s-14.328-32-32-32h-32c-8.836,0-16-7.164-16-16s7.164-16,16-16h56v-16h-32v-16h-16
	v16h-8c-17.672,0-32,14.328-32,32s14.328,32,32,32h32c8.836,0,16,7.164,16,16s-7.164,16-16,16h-56v16h32v16H248z"/>
</svg>
