<?xml version="1.0" encoding="utf-8"?>
<!-- Generator: Adobe Illustrator 16.0.0, SVG Export Plug-In . SVG Version: 6.00 Build 0)  -->
<!DOCTYPE svg PUBLIC "-//W3C//DTD SVG 1.1//EN" "http://www.w3.org/Graphics/SVG/1.1/DTD/svg11.dtd">
<svg version="1.1" id="Capa_1" xmlns="http://www.w3.org/2000/svg" xmlns:xlink="http://www.w3.org/1999/xlink" x="0px" y="0px"
	 width="960px" height="960px" viewBox="120 0 960 960" enable-background="new 120 0 960 960" xml:space="preserve">
<g>
	<path fill="#6C7A88" d="M205.313,316.875c-39.351,0-71.25,31.898-71.25,71.25v529.686h72.188H600V316.875H205.313z"/>
	<path fill="#4D5967" d="M994.688,316.875H600v600.936h393.75h72.188V388.125C1065.938,348.774,1034.038,316.875,994.688,316.875z"
		/>
	<path fill="#8B9BA9" d="M939.375,262.5h-678.75c-30.03,0-54.375,24.343-54.375,54.375v600.936h787.5V316.875
		C993.75,286.843,969.405,262.5,939.375,262.5z"/>
	<path fill="#6C7A88" d="M939.375,262.5H937.5v599.061H206.25v56.25h787.5V316.875C993.75,286.843,969.405,262.5,939.375,262.5z"/>
	<path fill="#FF5368" d="M725.874,480H474.126c-15.698,0-28.424,12.724-28.424,28.423v437.515h308.596V508.423
		C754.298,492.724,741.572,480,725.874,480z"/>
	<polygon fill="#C5324F" points="686.25,485.625 686.25,889.688 445.702,889.688 445.702,945.938 585.938,945.938 614.063,945.938 
		754.298,945.938 754.298,485.625 	"/>
	<path fill="#FFF9EB" d="M359.063,945.938v-416.25c0-62.133,50.368-112.5,112.5-112.5h256.875c62.132,0,112.5,50.367,112.5,112.5
		v416.25H742.5V541.875c0-14.498-11.753-26.25-26.25-26.25h-232.5c-14.497,0-26.25,11.752-26.25,26.25v404.063H359.063z"/>
	<g>
		<rect x="359.063" y="889.688" fill="#B6B0A2" width="98.438" height="56.25"/>
		<path fill="#B6B0A2" d="M784.688,529.688v360H742.5v56.25h98.438v-416.25c0-62.133-50.368-112.5-112.5-112.5l0,0
			c0,26.771,12.99,51.565,34.215,67.88C776.042,495.36,784.688,511.533,784.688,529.688z"/>
	</g>
	<path fill="#FFD33F" d="M840.938,164.063h-90.986c-1.007-82.003-67.736-150-149.951-150s-148.944,67.997-149.951,150h-90.986
		c-54.141,0-98.438,44.297-98.438,98.438s44.297,98.438,98.438,98.438h481.875c54.141,0,98.438-44.297,98.438-98.438
		S895.078,164.063,840.938,164.063z"/>
	<path fill="#C5324F" d="M600,70.313c-51.692,0-93.748,42.056-93.748,93.748h187.496C693.748,112.368,651.692,70.313,600,70.313z"/>
	<path d="M398.541,302.297c5.492-5.49,5.492-14.396,0-19.885c-5.49-5.493-14.394-5.493-19.882,0
		c-10.963,10.965-28.806,10.961-39.769,0c-10.965-10.969-10.965-28.806,0-39.771c10.961-10.969,28.804-10.965,39.769,0
		c5.488,5.49,14.393,5.494,19.882-0.004c5.492-5.49,5.492-14.393,0-19.883c-21.926-21.928-57.611-21.932-79.54,0.004
		c-21.93,21.929-21.93,57.613,0,79.538C340.929,324.225,376.612,324.225,398.541,302.297z"/>
	<path d="M422.931,317.846c7.275,2.721,15.377-0.956,18.105-8.229l1.85-4.937h33.24l1.853,4.937
		c2.115,5.647,7.472,9.126,13.165,9.126c1.641,0,3.309-0.285,4.937-0.898c7.268-2.725,10.952-10.828,8.226-18.102l-31.635-84.367
		c-2.061-5.486-7.306-9.118-13.165-9.118s-11.109,3.634-13.164,9.118l-31.637,84.367
		C411.975,307.016,415.663,315.119,422.931,317.846z M459.505,260.361l6.07,16.198h-12.147L459.505,260.361z"/>
	<path d="M554.69,290.621h-21.092c-7.765,0-14.059,6.29-14.059,14.059c0,7.768,6.294,14.063,14.059,14.063h21.092
		c19.384,0,35.152-15.769,35.152-35.152s-15.769-35.152-35.152-35.152c-3.877,0-7.031-3.154-7.031-7.031
		c0-3.874,3.154-7.027,7.031-7.027h9.842c7.767,0,14.061-6.295,14.061-14.063c0-7.769-6.294-14.06-14.061-14.06h-9.842
		c-19.384,0-35.15,15.77-35.15,35.149c0,19.384,15.767,35.152,35.15,35.152c3.878,0,7.031,3.157,7.031,7.031
		S558.57,290.621,554.69,290.621z"/>
	<path d="M612.225,290.621c-7.764,0-14.059,6.29-14.059,14.059c0,7.768,6.295,14.063,14.059,14.063h41.245
		c7.766,0,14.061-6.295,14.061-14.063c0-7.769-6.295-14.059-14.061-14.059h-6.561v-56.242h6.561c7.766,0,14.061-6.295,14.061-14.063
		c0-7.769-6.295-14.06-14.061-14.06h-41.245c-7.764,0-14.059,6.291-14.059,14.06c0,7.768,6.295,14.063,14.059,14.063h6.561v56.242
		H612.225z"/>
	<path d="M697.802,318.742c7.765,0,14.061-6.291,14.061-14.059v-41.415l36.467,49.727c2.698,3.685,6.947,5.745,11.342,5.745
		c1.459,0,2.931-0.227,4.373-0.699c5.78-1.891,9.688-7.284,9.688-13.363v-84.363c-0.002-7.765-6.296-14.06-14.063-14.06
		c-7.766,0-14.061,6.291-14.061,14.06v41.415l-36.469-49.728c-3.596-4.899-9.934-6.939-15.712-5.045
		c-5.779,1.89-9.685,7.284-9.685,13.359v84.367C683.743,312.451,690.037,318.742,697.802,318.742z"/>
	<path d="M841.202,318.742c31.012,0,56.244-25.231,56.244-56.246c0-31.011-25.232-56.239-56.244-56.239
		c-31.011,0-56.243,25.229-56.243,56.239C784.959,293.511,810.191,318.742,841.202,318.742z M841.202,234.379
		c15.506,0,28.121,12.616,28.121,28.117c0,15.508-12.617,28.125-28.121,28.125c-15.505,0-28.12-12.617-28.12-28.125
		C813.083,246.993,825.697,234.379,841.202,234.379z"/>
	<path d="M1006.524,303.632c-5.336-27.102-26.719-48.512-53.807-53.886C946.365,193.695,898.657,150,840.938,150h-77.475
		C756.308,66.094,685.727,0,600,0S443.692,66.094,436.537,150h-77.475c-57.72,0-105.428,43.694-111.782,99.744
		c-27.086,5.374-48.471,26.784-53.807,53.886C152.016,309.412,120,345.099,120,388.125v529.686c0,7.768,6.294,14.063,14.063,14.063
		H345v14.064c0,3.693,1.5,7.331,4.125,9.938c2.606,2.623,6.223,4.125,9.938,4.125h481.875c3.711,0,7.331-1.502,9.938-4.125
		c2.625-2.606,4.125-6.244,4.125-9.938v-14.064h210.938c7.769,0,14.063-6.295,14.063-14.063V388.125
		C1080,345.099,1047.984,309.412,1006.524,303.632z M600,28.125c70.209,0,128.156,53.501,135.214,121.875H521.55
		c6.55-36.78,38.828-65.625,78.45-65.625c26.231,0,50.813,12.975,65.755,34.741c4.381,6.383,13.144,8.018,19.558,3.638
		c6.394-4.388,8.023-13.164,3.636-19.556C668.813,73.798,635.55,56.25,600,56.25c-54.658,0-100.003,40.892-106.903,93.75h-28.311
		C471.844,81.626,529.791,28.125,600,28.125z M359.063,178.125h481.875c46.524,0,84.375,37.851,84.375,84.375
		c0,46.523-37.851,84.375-84.375,84.375H359.063c-46.524,0-84.375-37.852-84.375-84.375
		C274.688,215.976,312.538,178.125,359.063,178.125z M148.125,388.125c0-27.018,18.834-49.72,44.063-55.665v571.29h-44.063V388.125z
		 M728.438,541.875v390H614.063V529.688H716.25C722.963,529.706,728.419,535.162,728.438,541.875z M585.938,931.875H471.563v-390
		c0.019-6.713,5.475-12.169,12.188-12.188h102.188V931.875z M840.938,571.875c-7.765,0-14.063,6.298-14.063,14.063v345.938h-70.313
		v-390c0-0.173,0-0.344-0.004-0.515c0-0.031-0.002-0.06-0.002-0.092c-0.002-0.143-0.004-0.284-0.007-0.429
		c0-0.016-0.002-0.032-0.002-0.045c-0.272-10.359-4.442-20.064-11.798-27.42c-7.357-7.358-17.061-11.526-27.42-11.798
		c-0.015,0-0.032-0.002-0.047-0.002c-0.143-0.004-0.285-0.006-0.428-0.008c-0.03-0.002-0.06-0.002-0.092-0.002
		c-0.171-0.002-0.343-0.003-0.514-0.003h-232.5c-0.173,0-0.343,0.001-0.514,0.003c-0.03,0-0.062,0-0.092,0.002
		c-0.143,0.002-0.285,0.004-0.428,0.008c-0.017,0-0.032,0.002-0.047,0.002c-10.357,0.271-20.063,4.44-27.42,11.798
		c-7.355,7.355-11.525,17.061-11.798,27.42c0,0.015-0.002,0.031-0.002,0.045c-0.003,0.143-0.005,0.285-0.007,0.429
		c0,0.032-0.002,0.061-0.002,0.092c-0.002,0.173-0.004,0.344-0.004,0.515v390h-70.313l0,0c0-0.021,0-402.169,0-402.188l0,0
		c0-26.29,10.237-51,28.837-69.601c18.6-18.6,43.311-28.837,69.6-28.837h256.875c26.269,0,51,10.237,69.6,28.837
		c18.601,18.601,28.838,43.311,28.838,69.601c0,7.743,6.298,14.063,14.063,14.063c7.763,0,14.063-6.319,14.063-14.063
		c0-33.848-13.378-65.804-37.07-89.494c-24.236-24.238-56.458-37.068-89.492-37.068H471.563c-34.65,0-66.397,13.97-89.494,37.068
		C358.378,463.882,345,495.836,345,529.688v374.061H220.313V316.875c0-17.719,11.49-32.804,27.411-38.196
		C255.591,333.074,302.522,375,359.063,375h481.875c56.541,0,103.472-41.926,111.339-96.321
		c15.921,5.393,27.411,20.478,27.411,38.196v586.873H855V585.938C855,578.173,848.7,571.875,840.938,571.875z M1051.875,903.748
		h-44.063V332.46c25.228,5.945,44.063,28.647,44.063,55.665V903.748z"/>
	<path d="M543.75,906.223c7.763,0,14.063-6.281,14.063-14.063c0-7.763-6.3-14.063-14.063-14.063c-7.765,0-14.063,6.3-14.063,14.063
		C529.688,899.944,535.985,906.223,543.75,906.223z"/>
	<path d="M543.75,852.449c7.763,0,14.063-6.3,14.063-14.043c0-7.779-6.3-14.082-14.063-14.082c-7.765,0-14.063,6.301-14.063,14.082
		C529.688,846.148,535.985,852.449,543.75,852.449z"/>
	<path d="M543.75,583.613c7.763,0,14.063-6.3,14.063-14.081c0-7.765-6.3-14.044-14.063-14.044c-7.765,0-14.063,6.281-14.063,14.044
		C529.688,577.311,535.985,583.613,543.75,583.613z"/>
	<circle cx="543.75" cy="677.081" r="14.063"/>
	<path d="M543.75,744.918c7.763,0,14.063-6.3,14.063-14.063c0-7.781-6.3-14.063-14.063-14.063c-7.765,0-14.063,6.281-14.063,14.063
		C529.688,738.618,535.985,744.918,543.75,744.918z"/>
	<path d="M543.75,798.694c7.763,0,14.063-6.3,14.063-14.081c0-7.765-6.3-14.044-14.063-14.044c-7.765,0-14.063,6.281-14.063,14.044
		C529.688,792.392,535.985,798.694,543.75,798.694z"/>
	<circle cx="543.75" cy="623.306" r="14.063"/>
	<path d="M656.25,690.991c7.763,0,14.063-6.281,14.063-14.063c0-7.763-6.3-14.042-14.063-14.042
		c-7.765,0-14.063,6.281-14.063,14.042C642.188,684.712,648.485,690.991,656.25,690.991z"/>
	<circle cx="656.25" cy="730.706" r="14.063"/>
	<circle cx="656.25" cy="784.481" r="14.063"/>
	<path d="M656.25,852.317c7.763,0,14.063-6.298,14.063-14.063c0-7.779-6.3-14.063-14.063-14.063
		c-7.765,0-14.063,6.283-14.063,14.063C642.188,846.019,648.485,852.317,656.25,852.317z"/>
	<path d="M656.25,877.948c-7.765,0-14.063,6.301-14.063,14.084c0,7.743,6.298,14.041,14.063,14.041
		c7.763,0,14.063-6.298,14.063-14.041C670.313,884.25,664.013,877.948,656.25,877.948z"/>
	<circle cx="656.25" cy="569.4" r="14.063"/>
	<path d="M656.25,637.236c7.763,0,14.063-6.298,14.063-14.063c0-7.779-6.3-14.081-14.063-14.081c-7.765,0-14.063,6.3-14.063,14.081
		C642.188,630.938,648.485,637.236,656.25,637.236z"/>
</g>
</svg>
