<?xml version="1.0" encoding="utf-8"?>
<!-- Generator: Adobe Illustrator 16.0.0, SVG Export Plug-In . SVG Version: 6.00 Build 0)  -->
<!DOCTYPE svg PUBLIC "-//W3C//DTD SVG 1.1//EN" "http://www.w3.org/Graphics/SVG/1.1/DTD/svg11.dtd">
<svg version="1.1" id="Capa_1" xmlns="http://www.w3.org/2000/svg" xmlns:xlink="http://www.w3.org/1999/xlink" x="0px" y="0px"
	 width="960.001px" height="775.49px" viewBox="120 92.254 960.001 775.49" enable-background="new 120 92.254 960.001 775.49"
	 xml:space="preserve">
<g>
	<polyline fill="#A4A5A6" points="259.545,325.069 306.061,107.998 1065.808,278.554 988.282,573.149 	"/>
	<path d="M1003.787,577.801l-31.011-9.304l72.874-279.09L316.914,126.605L273.5,328.169l-31.01-6.201l46.515-217.07
		c1.55-7.753,9.303-13.955,18.606-12.404l0,0l759.747,170.556c7.753,1.55,13.955,10.854,12.404,18.605l0,0L1003.787,577.801z"/>
	
		<rect x="654.902" y="-118.39" transform="matrix(0.219 -0.9757 0.9757 0.219 259.3904 865.5996)" width="31.009" height="778.314"/>
	<path fill="#DBD0BF" d="M166.515,325.069h790.756c17.056,0,31.011,13.954,31.011,31.01V821.23c0,17.056-13.955,31.01-31.011,31.01
		H166.515c-17.056,0-31.01-13.954-31.01-31.01V356.078C135.505,339.023,149.459,325.069,166.515,325.069z"/>
	<path d="M957.271,867.744H166.515c-26.358,0-46.515-20.156-46.515-46.515V356.078c0-26.358,20.157-46.515,46.515-46.515h790.756
		c26.358,0,46.516,20.156,46.516,46.515V821.23C1003.787,847.588,983.63,867.744,957.271,867.744z M166.515,340.573
		c-9.303,0-15.505,6.202-15.505,15.505V821.23c0,9.303,6.202,15.505,15.505,15.505h790.756c9.304,0,15.505-6.202,15.505-15.505
		V356.078c0-9.303-6.201-15.505-15.505-15.505H166.515L166.515,340.573z"/>
	<circle fill="#DC8729" cx="848.736" cy="712.695" r="77.525"/>
	<path d="M848.736,805.725c-51.166,0-93.03-41.863-93.03-93.03s41.864-93.03,93.03-93.03c51.167,0,93.03,41.863,93.03,93.03
		S899.903,805.725,848.736,805.725z M848.736,650.674c-34.11,0-62.02,27.909-62.02,62.021s27.909,62.021,62.02,62.021
		c34.111,0,62.021-27.909,62.021-62.021S882.848,650.674,848.736,650.674z"/>
	<circle fill="#9F3A37" cx="755.706" cy="712.695" r="77.525"/>
	<path d="M755.706,805.725c-51.166,0-93.03-41.863-93.03-93.03s41.864-93.03,93.03-93.03c51.167,0,93.03,41.863,93.03,93.03
		S806.873,805.725,755.706,805.725z M755.706,650.674c-34.11,0-62.02,27.909-62.02,62.021s27.909,62.021,62.02,62.021
		c34.111,0,62.021-27.909,62.021-62.021S789.817,650.674,755.706,650.674z"/>
	<rect x="213.03" y="743.704" width="31.01" height="62.021"/>
	<rect x="275.05" y="743.704" width="31.01" height="62.021"/>
	<rect x="337.07" y="743.704" width="31.01" height="62.021"/>
	<rect x="399.091" y="743.704" width="31.01" height="62.021"/>
	<rect x="213.03" y="526.634" width="31.01" height="62.021"/>
	<rect x="275.05" y="526.634" width="31.01" height="62.021"/>
	<rect x="337.07" y="526.634" width="31.01" height="62.021"/>
	<rect x="399.091" y="526.634" width="31.01" height="62.021"/>
	<rect x="492.121" y="526.634" width="31.01" height="62.021"/>
	<rect x="554.141" y="526.634" width="31.011" height="62.021"/>
	<rect x="616.161" y="526.634" width="31.01" height="62.021"/>
	<rect x="678.182" y="526.634" width="31.01" height="62.021"/>
	<rect x="461.11" y="743.704" width="31.011" height="62.021"/>
	<rect x="523.131" y="743.704" width="31.01" height="62.021"/>
	<rect x="228.535" y="387.089" fill="#656A73" width="124.041" height="93.03"/>
	<path d="M352.576,495.624H228.535c-9.303,0-15.505-6.202-15.505-15.505v-93.03c0-9.304,6.202-15.505,15.505-15.505h124.041
		c9.303,0,15.505,6.201,15.505,15.505v93.03C368.081,489.422,361.878,495.624,352.576,495.624z M244.04,464.614h93.03v-62.02h-93.03
		V464.614z"/>
	<rect x="461.11" y="681.685" width="93.03" height="31.01"/>
	<rect x="337.07" y="681.685" width="93.03" height="31.01"/>
	<rect x="213.03" y="681.685" width="93.03" height="31.01"/>
</g>
</svg>
