<?xml version="1.0" encoding="utf-8"?>
<!-- Generator: Adobe Illustrator 16.0.0, SVG Export Plug-In . SVG Version: 6.00 Build 0)  -->
<!DOCTYPE svg PUBLIC "-//W3C//DTD SVG 1.1//EN" "http://www.w3.org/Graphics/SVG/1.1/DTD/svg11.dtd">
<svg version="1.1" id="Capa_1" xmlns="http://www.w3.org/2000/svg" xmlns:xlink="http://www.w3.org/1999/xlink" x="0px" y="0px"
	 width="957.471px" height="959.999px" viewBox="121.266 0 957.471 959.999" enable-background="new 121.266 0 957.471 959.999"
	 xml:space="preserve">
<g>
	<path fill="#EDE6F5" d="M603.742,852.742L344.25,942.932c-26.524,9.214-55.513-4.815-64.727-31.339l-141.189-406.26
		c-9.214-26.524,4.815-55.514,31.338-64.728l135.255-47l124.239-43.189c26.542-9.214,55.531,4.815,64.745,31.339L607.08,707.379
		l28.021,80.633C644.315,814.539,630.287,843.527,603.742,852.742z"/>
	<path fill="#CEC1E8" d="M607.08,707.381H355.775c-28.078,0-50.848-22.771-50.848-50.867V393.606l124.239-43.189
		c26.542-9.213,55.531,4.815,64.745,31.339L607.08,707.381z"/>
	<path fill="#ED4596" d="M422.662,750.111c-109.74-10.887-181.173-129.974-135.281-161.737
		c45.893-31.765,91.146,34.743,91.146,34.743s-5.745-80.238,49.956-83.782C484.185,535.794,502.001,673.513,422.662,750.111z"/>
	<path fill="#EDE6F5" d="M734.448,177.15v430.069c0,1.383-0.056,2.767-0.17,4.113c-2.085,26.183-23.983,46.753-50.696,46.753
		h-274.72c-28.078,0-50.848-22.77-50.848-50.866V177.15c0-28.097,22.77-50.866,50.848-50.866h274.72
		C711.679,126.281,734.448,149.051,734.448,177.15z"/>
	<path fill="#CEC1E8" d="M734.448,177.15v430.069c0,1.383-0.056,2.767-0.17,4.113l-164.093-43.359
		c-27.149-7.166-43.359-34.999-36.175-62.148l100.294-379.543h49.275C711.679,126.281,734.448,149.051,734.448,177.15z"/>
	<path fill="#4E4F75" d="M546.227,270.169c82.622,38.227,106.052,150.443,61.658,162.775
		c-44.393,12.332-61.658-51.793-61.658-51.793s-17.265,64.123-61.657,51.793C440.175,420.613,463.606,308.396,546.227,270.169z"/>
	<path fill="#EDE6F5" d="M625.168,530.063l265.605,70.179c27.157,7.176,54.989-9.022,62.165-36.18l109.864-415.806
		c7.176-27.157-9.022-54.99-36.181-62.165L761.018,15.913c-27.157-7.176-54.99,9.022-62.166,36.18L588.988,467.901
		C581.811,495.054,598.011,522.887,625.168,530.063z"/>
	<path fill="#ED4596" d="M796.213,420.412c37.422-44.593,84.762-72.146,142.019-82.654c-44.592-37.419-72.146-84.759-82.654-142.018
		c-37.421,44.593-84.761,72.146-142.018,82.654C758.152,315.818,785.704,363.156,796.213,420.412z"/>
	<path d="M618.092,695.762c-2.578-7.42-10.688-11.342-18.1-8.766c-7.419,2.578-11.342,10.682-8.766,18.098l30.438,87.577
		c3.214,9.242,2.634,19.187-1.632,27.995c-4.266,8.81-11.705,15.432-20.949,18.644l-105.561,36.687
		c-7.419,2.578-11.342,10.682-8.766,18.098c2.042,5.874,7.543,9.555,13.431,9.555c1.549,0,3.124-0.253,4.667-0.791l105.563-36.687
		c33.895-11.78,51.887-48.941,40.108-82.836L618.092,695.762z"/>
	<path d="M447.116,892.128l-107.531,37.369c-9.242,3.216-19.187,2.636-27.996-1.631c-8.809-4.266-15.431-11.706-18.643-20.95
		l-141.18-406.243c-6.632-19.083,3.499-40.005,22.583-46.637l149.61-51.995c7.419-2.578,11.342-10.683,8.766-18.1
		c-2.578-7.421-10.688-11.34-18.098-8.766l-149.61,51.996c-16.421,5.707-29.635,17.465-37.211,33.11
		c-7.577,15.645-8.606,33.306-2.899,49.727L266.091,916.25c5.708,16.422,17.465,29.635,33.112,37.211
		c8.979,4.347,18.621,6.539,28.311,6.537c7.194,0,14.419-1.208,21.415-3.64l107.53-37.369c7.419-2.578,11.342-10.682,8.766-18.098
		C462.636,893.473,454.528,889.55,447.116,892.128z"/>
	<path d="M466.414,681.661c-7.202-3.123-15.578,0.177-18.705,7.38c-7.573,17.439-17.729,32.922-30.24,46.116
		c-68.708-9.909-118.296-65.661-128.128-103.65c-2.725-10.521-3.87-24.516,6.135-31.439c7.06-4.889,14.224-6.788,21.915-5.82
		c7.798,0.999,14.904-4.539,15.885-12.33c0.983-7.791-4.539-14.904-12.332-15.887c-14.752-1.86-28.761,1.727-41.655,10.653
		c-18.063,12.505-24.435,35.082-17.48,61.952c7.042,27.214,26.631,56.146,53.736,79.374c21.534,18.452,57.353,41.455,105.714,46.253
		c0.471,0.045,0.939,0.069,1.404,0.069c3.668,0,7.212-1.418,9.874-3.988c17.383-16.783,31.264-36.958,41.256-59.972
		C476.921,693.164,473.617,684.791,466.414,681.661z"/>
	<path d="M328.948,891.474c12.21,5.151,24.308-8.647,17.813-20.12c-2.725-4.812-8.198-7.669-13.707-7.146
		c-6.188,0.587-11.385,5.263-12.6,11.362C319.155,882.09,322.73,888.983,328.948,891.474z"/>
	<path d="M734.456,593.002c-7.853,0-14.22,6.365-14.22,14.22c0,20.207-16.44,36.649-36.648,36.649H408.87
		c-20.209,0-36.649-16.44-36.649-36.649V177.15c0-20.208,16.44-36.648,36.649-36.648h222.975c7.853,0,14.221-6.365,14.221-14.22
		s-6.366-14.221-14.221-14.221H408.87c-35.89,0-65.087,29.198-65.087,65.087v430.071c0,35.887,29.197,65.086,65.087,65.086h274.718
		c35.889,0,65.087-29.197,65.087-65.086C748.675,599.367,742.309,593.002,734.456,593.002z"/>
	<path d="M536.749,286.036c13.547,7.189,25.768,16.932,36.396,29.029c5.187,5.9,14.167,6.479,20.066,1.297
		c5.9-5.183,6.479-14.167,1.297-20.065c-14.801-16.847-32.228-29.978-51.789-39.03c-3.787-1.753-8.154-1.753-11.942,0
		c-36.995,17.117-59.028,45.186-71,65.717c-15.092,25.886-22.645,54.281-20.723,77.906c1.946,23.933,13.695,40.61,32.229,45.759
		c4.979,1.383,9.938,2.07,14.805,2.07c8.804,0,17.309-2.25,25.119-6.705c4.147-2.368,7.913-5.231,11.321-8.397v45.155h-29.601
		c-7.853,0-14.22,6.365-14.22,14.22s6.365,14.221,14.22,14.221h49.722c7.853,0,14.22-6.366,14.22-14.221
		c0-4.741-2.33-8.933-5.9-11.515v-48.056c5.582,4.115,13.479,3.646,18.514-1.421c5.531-5.575,5.495-14.578-0.077-20.109
		c-12.887-12.788-18.873-34.242-18.924-34.43c-1.671-6.208-7.302-10.522-13.73-10.522c-6.43,0-12.059,4.314-13.731,10.522
		c-2.067,7.687-11.269,31.506-25.9,39.855c-5.629,3.208-11.419,3.823-18.22,1.935c-8.735-2.426-10.952-13.987-11.496-20.664
		C464.849,367.236,487.604,312.129,536.749,286.036z"/>
	<path d="M426.191,580.713c-5.537-2.285-12.084-0.791-16.065,3.687c-4.159,4.675-4.736,11.755-1.392,17.044
		c3.09,4.89,9.098,7.506,14.783,6.341c5.723-1.172,10.215-5.748,11.229-11.511C435.891,589.78,432.249,583.271,426.191,580.713z"/>
	<path d="M1069.877,102.527c-8.743-15.022-22.815-25.743-39.621-30.184L764.649,2.165c-34.697-9.163-70.378,11.601-79.545,46.292
		L575.24,464.265c-9.167,34.693,11.601,70.378,46.294,79.545l265.605,70.18c5.538,1.464,11.154,2.188,16.732,2.188
		c11.353,0,22.555-2.998,32.627-8.859c15.022-8.743,25.742-22.814,30.184-39.62l40.932-154.913
		c2.006-7.594-2.524-15.373-10.116-17.379c-7.594-2.007-15.373,2.523-17.38,10.115l-40.931,154.913
		c-2.501,9.463-8.535,17.383-16.995,22.307s-18.328,6.259-27.791,3.756L628.8,516.315c-19.533-5.16-31.227-25.252-26.064-44.786
		L712.602,55.721c2.501-9.463,8.534-17.383,16.995-22.307c8.456-4.922,18.328-6.257,27.791-3.758l265.604,70.182
		c9.464,2.501,17.386,8.535,22.308,16.993c4.924,8.458,6.256,18.328,3.757,27.791l-54.489,206.226
		c-2.006,7.594,2.523,15.373,10.115,17.379c7.594,2.009,15.373-2.523,17.38-10.115l54.487-206.224
		C1080.99,135.08,1078.62,117.551,1069.877,102.527z"/>
	<path d="M998.721,159.384c12.854,0,19.106-16.575,9.294-24.989c-9.605-8.237-25.033-0.201-23.397,12.508
		C985.517,153.909,991.628,159.384,998.721,159.384z"/>
	<path d="M664.886,463.11c-6.938-10.541-23.63-6.844-25.828,5.449c-2.229,12.474,12.456,21.271,22.499,13.832
		C667.526,477.973,669.051,469.279,664.886,463.11z"/>
	<path d="M869.563,193.176c-0.994-5.417-5.029-9.774-10.354-11.181c-5.323-1.408-10.985,0.386-14.523,4.606
		c-35.063,41.784-80.044,67.963-133.693,77.809c-5.417,0.994-9.774,5.029-11.181,10.354c-1.406,5.325,0.389,10.986,4.607,14.524
		c41.784,35.063,67.961,80.041,77.809,133.692c0.994,5.417,5.028,9.774,10.354,11.181c1.204,0.319,2.423,0.475,3.632,0.475
		c4.143,0,8.152-1.815,10.894-5.079c35.063-41.784,80.044-67.963,133.693-77.809c5.417-0.994,9.774-5.029,11.181-10.354
		c1.406-5.324-0.388-10.983-4.606-14.523C905.589,291.803,879.411,246.823,869.563,193.176z M803.933,391.198
		c-11.588-40.042-32.068-75.229-61.159-105.082c40.043-11.587,75.229-32.068,105.085-61.158
		c11.587,40.042,32.068,75.229,61.158,105.082C868.975,341.626,833.788,362.108,803.933,391.198z"/>
</g>
</svg>
