<?xml version="1.0" encoding="utf-8"?>
<!-- Generator: Adobe Illustrator 16.0.0, SVG Export Plug-In . SVG Version: 6.00 Build 0)  -->
<!DOCTYPE svg PUBLIC "-//W3C//DTD SVG 1.1//EN" "http://www.w3.org/Graphics/SVG/1.1/DTD/svg11.dtd">
<svg version="1.1" id="Capa_1" xmlns="http://www.w3.org/2000/svg" xmlns:xlink="http://www.w3.org/1999/xlink" x="0px" y="0px"
	 width="383.721px" height="439.5px" viewBox="0 0 383.721 439.5" enable-background="new 0 0 383.721 439.5" xml:space="preserve">
<g>
	<path fill="#49BFA5" d="M356.982,91.197L212.7,13.374c-6.402-3.896-13.621-5.845-20.839-5.845c-7.221,0-14.438,1.948-20.839,5.845
		L26.74,91.197C14.793,98.469,7.5,111.445,7.5,125.431v178.954c0,14.008,7.314,27.002,19.294,34.268l144.282,87.512
		c6.387,3.873,13.585,5.813,20.785,5.813c7.199,0,14.398-1.939,20.785-5.813l144.281-87.512
		c11.98-7.266,19.295-20.258,19.295-24.268V135.431C376.22,111.444,368.929,98.469,356.982,91.197L356.982,91.197z"/>
	<path fill="#49BFA5" d="M356.927,338.651c11.98-7.266,19.295-20.258,19.295-34.268V125.431c0-6.969-1.814-13.686-5.109-19.572
		l-179.25,98.87v227.246c7.198,0,14.397-1.938,20.786-5.811L356.927,338.651z"/>
	<path fill="#49BFA5" d="M26.794,338.651C14.815,331.385,7.5,318.393,7.5,304.383V125.431c0-6.969,1.815-13.686,5.109-19.572
		l179.251,98.87v227.246c-7.2,0-14.398-1.938-20.785-5.811L26.794,338.651z"/>
	
		<ellipse transform="matrix(-0.92 0.392 -0.392 -0.92 289.7908 480.7725)" fill="#FFFFFF" cx="95.817" cy="269.969" rx="14.963" ry="26.447"/>
	<ellipse fill="#FFFFFF" cx="192.052" cy="101.4" rx="26.4" ry="16.653"/>
	<ellipse fill="#FFFFFF" cx="274.062" cy="101.4" rx="26.4" ry="16.653"/>
	<ellipse fill="#FFFFFF" cx="110.044" cy="101.4" rx="26.4" ry="16.653"/>
	<path d="M383.72,125.43c0-16.493-8.75-32.064-22.838-40.642L216.599,6.967c-15.26-9.288-34.217-9.289-49.476,0L22.842,84.79
		C8.753,93.365,0.001,108.939,0.001,125.431v178.952c0,16.523,8.776,32.111,22.904,40.682l144.283,87.512
		c7.608,4.617,16.142,6.926,24.674,6.926c8.5,0,16.999-2.295,24.586-6.875l164.139-106.631l-8.084-11.408L216.448,415.086
		l-7.691,4.666c-2.965,1.799-6.139,3.066-9.396,3.842V208.953l168.209-92.026c0.75,2.747,1.152,5.604,1.152,8.504v194.472
		c0,4.143,3.357,7.5,7.498,7.5c4.143,0,7.5-3.357,7.5-7.5 M30.683,332.24C21.01,326.371,15,315.699,15,304.385V125.431
		c0-2.9,0.401-5.757,1.153-8.504l19.554,11.86c1.216,0.735,2.558,1.088,3.882,1.088c2.535,0,5.009-1.286,6.419-3.611
		c2.148-3.541,1.02-8.153-2.522-10.301l-20.162-12.229c2.106-2.366,4.557-4.45,7.315-6.131l144.282-77.824
		c10.449-6.358,23.43-6.358,33.879,0l144.283,77.824c2.76,1.681,5.209,3.764,7.316,6.131l-168.539,92.224L70.666,132.447
		c-3.542-2.146-8.155-1.018-10.301,2.523c-2.148,3.542-1.02,8.153,2.521,10.301l121.475,63.681v214.64
		c-3.259-0.773-6.432-2.043-9.396-3.842L30.683,332.24z"/>
	<path d="M99.447,240.598c-6.465-3.732-13.309-4.063-18.772-0.908c-6.167,3.561-9.705,11.006-9.705,20.428
		c0,15.309,9.215,32.617,20.978,39.408c3.522,2.033,7.159,3.059,10.623,3.059c2.892,0,5.664-0.715,8.148-2.148
		c6.167-3.563,9.705-11.006,9.705-20.426C120.424,264.701,111.211,247.389,99.447,240.598L99.447,240.598z M103.219,287.446
		c-0.668,0.385-2.148,0.027-3.772-0.908c-7.181-4.146-13.478-16.49-13.478-26.42c0-4.877,1.442-6.998,2.205-7.439
		c0.179-0.102,0.416-0.152,0.698-0.152c0.772,0,1.886,0.375,3.075,1.063c7.18,4.146,13.477,16.492,13.477,26.422
		C105.425,284.883,103.983,287.004,103.219,287.446L103.219,287.446z"/>
	<path d="M192.052,125.552c19.009,0,33.902-10.609,33.902-24.152s-14.893-24.151-33.902-24.151
		c-19.01,0-33.899,10.608-33.899,24.151C158.152,114.942,173.043,125.552,192.052,125.552z M192.052,92.246
		c11.539,0,18.902,5.421,18.902,9.152c0,3.732-7.363,9.153-18.902,9.153c-11.539,0-18.9-5.422-18.9-9.153
		C173.152,97.668,180.513,92.246,192.052,92.246z"/>
	<path d="M274.062,125.552c19.01,0,33.898-10.609,33.898-24.152s-14.891-24.151-33.898-24.151s-33.9,10.608-33.9,24.151
		S255.054,125.552,274.062,125.552z M274.062,92.246c11.537,0,18.9,5.421,18.9,9.152c0,3.732-7.363,9.153-18.9,9.153
		s-18.9-5.422-18.9-9.153C255.161,97.668,262.525,92.246,274.062,92.246z"/>
	<path d="M110.044,125.552c19.01,0,33.9-10.609,33.9-24.152s-14.892-24.151-33.9-24.151s-33.9,10.608-33.9,24.151
		C76.141,114.942,91.033,125.552,110.044,125.552z M110.044,92.246c11.538,0,18.901,5.421,18.901,9.152
		c0,3.732-7.364,9.153-18.901,9.153c-11.538,0-18.901-5.422-18.901-9.153C91.142,97.668,98.505,92.246,110.044,92.246z"/>
	<ellipse fill="#FFFFFF" cx="318.216" cy="289.234" rx="18.33" ry="24.046"/>
	<ellipse fill="#FFFFFF" cx="253.073" cy="244.094" rx="18.328" ry="24.047"/>
	<path d="M318.216,257.688c-13.262,0-24.049,14.15-24.049,31.545c0,17.396,10.787,31.549,24.049,31.549
		c13.26,0,24.047-14.152,24.047-31.549C342.261,271.838,331.474,257.688,318.216,257.688z M318.216,305.781
		c-6.957,0-12.613-7.424-12.613-16.549c0-9.123,5.656-16.547,12.613-16.547c6.955,0,12.613,7.424,12.613,16.547
		C330.829,298.36,325.171,305.781,318.216,305.781z"/>
	<path d="M253.075,212.547c-13.26,0-24.047,14.151-24.047,31.545s10.787,31.547,24.047,31.547c13.258,0,24.045-14.152,24.045-31.547
		S266.333,212.547,253.075,212.547z M253.075,260.641c-6.957,0-12.613-7.424-12.613-16.547c0-9.125,5.658-16.547,12.613-16.547
		c6.953,0,12.611,7.422,12.611,16.547C265.687,253.217,260.029,260.641,253.075,260.641z"/>
</g>
</svg>
