<?xml version="1.0" encoding="utf-8"?>
<!-- Generator: Adobe Illustrator 16.0.0, SVG Export Plug-In . SVG Version: 6.00 Build 0)  -->
<!DOCTYPE svg PUBLIC "-//W3C//DTD SVG 1.1//EN" "http://www.w3.org/Graphics/SVG/1.1/DTD/svg11.dtd">
<svg version="1.1" id="Layer_1" xmlns="http://www.w3.org/2000/svg" xmlns:xlink="http://www.w3.org/1999/xlink" x="0px" y="0px"
	 width="512px" height="364.953px" viewBox="0 0 512 364.953" enable-background="new 0 0 512 364.953" xml:space="preserve">
<g>
	<path fill="#49BFA5" d="M298.023,210.938c0,79.535-64.477,144.012-144.012,144.012S10,290.473,10,210.938
		S74.477,66.926,154.012,66.926S298.023,131.403,298.023,210.938z"/>
	<g>
		<path fill="#FFFFFF" d="M413.629,297.457v57.496H154.012c47.066,0,88.863-22.582,115.141-57.496H413.629z"/>
		<path fill="#FFFFFF" d="M476.902,239.973v57.484h-207.75c12.574-16.711,21.602-36.246,25.949-57.484H476.902z"/>
		<path fill="#FFFFFF" d="M476.902,182.477v57.496H295.102c1.914-9.375,2.926-19.086,2.926-29.031c0-9.75-0.973-19.266-2.816-28.465
			H476.902z"/>
		<path fill="#FFFFFF" d="M502,124.985v57.492H295.211c-4.246-21.219-13.172-40.754-25.637-57.492H502z"/>
		<path fill="#FFFFFF" d="M436.57,67.496v57.488H269.574c-23.844-32-60.66-53.758-102.656-57.488H436.57z"/>
		<path fill="#FFFFFF" d="M190.922,10h285.98v57.492h-285.98V10z"/>
	</g>
	<path fill="#FFFFFF" d="M154.011,140.328l20.386,35.305h40.769l-20.387,35.304l20.387,35.305h-40.769l-20.386,35.309
		l-20.382-35.309H92.861l20.387-35.305l-20.387-35.304h40.768L154.011,140.328z"/>
	<path d="M502,114.985h-55.43V77.492h30.332c5.523,0,10-4.477,10-10V10c0-5.523-4.477-10-10-10h-285.98c-5.523,0-10,4.477-10,10
		v46.926c0,0-22.469,0-26.91,0C69.09,56.926,0,126.016,0,210.938c0,9.027,0.793,18.09,2.355,26.941
		c0.957,5.438,6.148,9.066,11.586,8.105c5.438-0.957,9.066-6.145,8.109-11.586C20.688,226.699,20,218.805,20,210.938
		c0-73.895,60.117-134.012,134.012-134.012c11.352,0,22.719,1.438,33.707,4.297c57.629,14.988,100.305,67.461,100.305,129.715
		c0,70.395-54.555,128.285-123.605,133.613c-3.461,0.262-6.938,0.398-10.406,0.398c-34.816,0-67.809-13.293-92.895-37.43
		c-3.98-3.828-10.309-3.703-14.141,0.273c-3.828,3.98-3.707,10.313,0.273,14.141c9.383,9.027,19.734,16.727,30.801,23.016H38.785
		c-5.523,0-10,4.477-10,10s4.477,10,10,10h115.141c0.027,0,0.059,0.004,0.086,0.004c0,0,259.672-0.004,259.703-0.004h69.543
		c5.523,0,10-4.477,10-10s-4.477-10-10-10h-59.629v-37.488h53.273c5.523,0,10-4.48,10-10v-104.98H502c5.523,0,10-4.477,10-10
		v-57.496C512,119.461,507.523,114.985,502,114.985z M200.922,20h265.98v37.492h-80.906c-5.523,0-10,4.477-10,10v0.004
		c0,5.523,4.477,10,10,10h40.574v37.488H274.488c-12.168-15.258-26.992-27.918-43.582-37.488h64.93c5.523,0,10-4.477,10-10
		c0-0.344-0.02-0.688-0.055-1.023c-0.508-5.043-4.77-8.98-9.945-8.98h-94.914V20z M403.629,344.949H229.965
		c16.832-9.57,31.902-22.387,44.074-37.492h129.59V344.949z M466.902,287.457H287.684c3.031-5.301,5.734-10.793,8.121-16.41
		c2.906-6.832,5.34-13.891,7.227-21.074h163.871V287.457z M466.902,229.973H306.859c1.527-12.426,1.551-25.066,0.066-37.496h159.977
		V229.973z M492,172.477H303.188c-3.375-13.172-8.441-25.715-15.148-37.492H492V172.477z"/>
	<path d="M331.68,71.418c2.066,5.039,8.039,7.492,13.059,5.41c5.031-2.09,7.496-8.023,5.41-13.063
		c-2.082-5.031-8.031-7.492-13.059-5.41S329.586,66.391,331.68,71.418z"/>
	<path d="M31.051,288.535c5.039-2.063,7.492-8.043,5.41-13.059c-2.09-5.031-8.012-7.492-13.051-5.41
		c-5.043,2.082-7.5,8.027-5.41,13.063C20.082,288.149,26.02,290.633,31.051,288.535z"/>
</g>
</svg>
