<?xml version="1.0" encoding="utf-8"?>
<!-- Generator: Adobe Illustrator 16.0.0, SVG Export Plug-In . SVG Version: 6.00 Build 0)  -->
<!DOCTYPE svg PUBLIC "-//W3C//DTD SVG 1.1//EN" "http://www.w3.org/Graphics/SVG/1.1/DTD/svg11.dtd">
<svg version="1.1" id="Layer_1" xmlns="http://www.w3.org/2000/svg" xmlns:xlink="http://www.w3.org/1999/xlink" x="0px" y="0px"
	 width="436.008px" height="422.018px" viewBox="0 0 436.008 422.018" enable-background="new 0 0 436.008 422.018"
	 xml:space="preserve">
<g>
	<path fill="#49BFA5" d="M327.692,129.732c44.155-0.039,82.858,29.514,94.459,72.11c11.601,42.604-6.776,87.693-44.854,110.05
		c-38.074,22.354-82.404,16.426-113.953-14.467c-2.467,1.892-4.67,4.106-6.551,6.581c-7.391,9.708-10.828,24.101-10.828,45.229
		c0,39.103,21.826,60.976,60.929,60.976c0.28,0,0.5,0.332,0.5,0.601c0,0.271-0.22,0.718-0.5,0.718H129.096
		c-0.281,0-0.5-0.439-0.5-0.718c0-0.28,0.219-0.71,0.5-0.71c39.103,0,60.928-21.813,60.928-60.916
		c0-21.124-3.438-35.489-10.827-45.209c-1.885-2.466-4.089-4.67-6.551-6.558c-32.844,32.079-79.585,36.982-117.961,11.786
		s-54.05-73.705-37.67-116.593c16.383-42.892,60.401-68.604,105.805-61.799c-9.306-39.327,6.539-80.326,39.871-103.183
		c33.328-22.852,77.284-22.852,110.61,0c33.332,22.855,49.178,63.854,39.871,103.183
		C317.978,130.091,322.835,129.732,327.692,129.732z"/>
	<path stroke="#000000" stroke-width="5" stroke-miterlimit="10" d="M104.296,333.331c24.975,0.051,49.149-8.803,68.185-24.972
		c0.121,0.148,0.238,0.301,0.355,0.453c6.274,8.252,9.196,21.076,9.196,40.37c0,17.854-4.982,23.874-14.034,35.106
		c-9.387,11.657-22.84,17.818-38.903,17.818c-4.725,0.113-8.498,3.977-8.498,8.704c0,4.729,3.773,8.592,8.498,8.705h177.798
		c4.706-0.102,8.467-3.945,8.467-8.65c0-4.704-3.761-8.549-8.467-8.648c-16.059,0-29.512-6.169-38.902-17.843
		c-9.053-11.248-14.035-17.284-14.035-35.143c0-19.313,2.924-32.146,9.201-40.394c0.117-0.156,0.234-0.31,0.354-0.461
		c35.755,30.155,83.065,33.254,122.187,7.616c39.123-25.634,56.762-73.92,43.379-118.738s-54.611-75.524-101.385-75.517
		c-1.588,0-3.18,0.034-4.775,0.108c5.26-40.718-13.506-80.799-48.149-102.828c-34.644-22.025-78.903-22.025-113.545,0.003
		c-34.643,22.029-53.41,62.11-48.15,102.828c-1.596-0.073-3.188-0.108-4.775-0.108C49.866,121.741,2.5,169.108,2.5,227.538
		C2.5,285.965,45.866,333.331,104.296,333.331z M108.296,137.723c4.463,0,8.923,0.331,13.34,0.991
		c2.622,0.394,5.271-0.543,7.066-2.497c1.794-1.951,2.501-4.667,1.888-7.25c-8.541-36.113,6.009-73.76,36.617-94.747
		c30.608-20.982,70.966-20.982,101.575,0c30.607,20.987,45.157,58.634,36.616,94.747c-0.612,2.583,0.095,5.299,1.89,7.25
		c1.793,1.954,4.442,2.891,7.064,2.497c33.314-5.006,66.637,9.056,86.292,36.418c19.655,27.361,22.354,63.421,6.978,93.401
		c-15.377,29.976-46.234,48.827-79.931,48.827c-23.476,0.039-42.022-9.177-58.754-25.645c-2.844-2.786-7.304-3.056-10.46-0.625
		c-3.027,2.321-5.73,5.037-8.041,8.077c-8.502,11.166-12.462,27.072-12.462,50.064c0,21.494,6.237,31.084,17.565,45.161
		c2.672,3.332,5.664,6.396,8.935,9.143h-93.071c3.313-2.768,6.34-5.854,9.04-9.221c11.33-14.064,17.569-23.644,17.569-45.134
		c0-22.965-3.96-38.868-12.465-50.054c-2.314-3.024-5.014-5.731-8.034-8.05c-3.156-2.427-7.616-2.161-10.46,0.625
		c-28.97,28.337-69.327,33.76-104.267,13.236c-34.943-20.521-51.81-61.902-41.17-101.005
		C32.262,164.839,67.771,137.707,108.296,137.723z"/>
</g>
</svg>
