<?xml version="1.0" encoding="utf-8"?>
<!-- Generator: Adobe Illustrator 16.0.0, SVG Export Plug-In . SVG Version: 6.00 Build 0)  -->
<!DOCTYPE svg PUBLIC "-//W3C//DTD SVG 1.1//EN" "http://www.w3.org/Graphics/SVG/1.1/DTD/svg11.dtd">
<svg version="1.1" id="Layer_1" xmlns="http://www.w3.org/2000/svg" xmlns:xlink="http://www.w3.org/1999/xlink" x="0px" y="0px"
	 width="49.613px" height="51.491px" viewBox="0 0 49.613 51.491" enable-background="new 0 0 49.613 51.491" xml:space="preserve">
<g>
	
		<linearGradient id="SVGID_1_" gradientUnits="userSpaceOnUse" x1="880.0908" y1="-11.8306" x2="894.5332" y2="-25.9127" gradientTransform="matrix(1 0 0 1 -881.3916 53.46)">
		<stop  offset="0" style="stop-color:#4D0000"/>
		<stop  offset="1" style="stop-color:#FF0300"/>
	</linearGradient>
	<path fill="url(#SVGID_1_)" d="M3.475,25.754H0.092c0,0,0,19.567,0,23.855c0,1.275,1.412,1.786,3.382,1.882V25.754z"/>
	
		<linearGradient id="SVGID_2_" gradientUnits="userSpaceOnUse" x1="911.9355" y1="-44.9072" x2="923.6707" y2="-56.3497" gradientTransform="matrix(1 0 0 1 -881.3916 53.46)">
		<stop  offset="0" style="stop-color:#FF0300"/>
		<stop  offset="1" style="stop-color:#4D0000"/>
	</linearGradient>
	<path fill="url(#SVGID_2_)" d="M49.573,3.335c0.145-1.814-0.066-3.339-1.204-3.326c-2.809,0.034-22.74,0-22.74,0v3.326H49.573z"/>
	
		<linearGradient id="SVGID_3_" gradientUnits="userSpaceOnUse" x1="883.1621" y1="-19.5078" x2="918.3309" y2="-53.7995" gradientTransform="matrix(1 0 0 1 -881.3916 53.46)">
		<stop  offset="0" style="stop-color:#C90000"/>
		<stop  offset="0.0282" style="stop-color:#D10000"/>
		<stop  offset="0.1149" style="stop-color:#E60200"/>
		<stop  offset="0.2133" style="stop-color:#F40200"/>
		<stop  offset="0.3321" style="stop-color:#FC0300"/>
		<stop  offset="0.5273" style="stop-color:#FF0300"/>
		<stop  offset="0.6457" style="stop-color:#FA0300"/>
		<stop  offset="0.7947" style="stop-color:#EA0200"/>
		<stop  offset="0.9595" style="stop-color:#D00000"/>
		<stop  offset="1" style="stop-color:#C90000"/>
	</linearGradient>
	<path fill="url(#SVGID_3_)" d="M0.092,25.58c-0.035,1.957-0.188,21.894,0,24.04C3.169,42.874,41.621,2.644,48.375,0.01
		c-3.198-0.034-18.896,0.034-22.715,0C21.839-0.024,0.281,19.315,0.092,25.58z"/>
	<path fill="#BE1E2D" d="M0.092,49.619c1.354-2.569,3.266-4.788,5.055-7.054c1.847-2.23,3.751-4.417,5.675-6.582
		c3.851-4.326,7.797-8.57,11.8-12.755c4.039-4.152,8.142-8.247,12.34-12.238c2.103-1.996,4.228-3.962,6.413-5.87
		c1.1-0.941,2.211-1.871,3.358-2.754c1.153-0.871,2.311-1.775,3.643-2.356c-1.316,0.61-2.451,1.539-3.582,2.432
		c-1.125,0.907-2.214,1.863-3.291,2.829c-2.16,1.92-4.271,3.903-6.355,5.912c-4.166,4.02-8.23,8.146-12.237,12.324
		c-4.032,4.147-8.008,8.359-11.89,12.656c-1.939,2.147-3.856,4.317-5.723,6.528C3.457,44.914,1.501,47.088,0.092,49.619z"/>
	<path fill="#FF757A" d="M0.708,47.855c0.592-1.229,1.422-2.318,2.225-3.414c0.817-1.086,1.664-2.152,2.523-3.207
		c1.732-2.095,3.519-4.147,5.324-6.181c3.616-4.062,7.32-8.042,11.081-11.976c3.792-3.895,7.64-7.74,11.582-11.485
		c1.975-1.871,3.969-3.721,6.021-5.51c1.031-0.887,2.076-1.758,3.15-2.588c1.086-0.813,2.166-1.671,3.419-2.211
		c-1.24,0.564-2.298,1.444-3.361,2.281c-1.055,0.854-2.08,1.748-3.09,2.655c-2.029,1.805-4.011,3.663-5.969,5.55
		c-3.911,3.77-7.727,7.646-11.487,11.565c-3.786,3.9-7.519,7.853-11.161,11.885c-1.821,2.016-3.62,4.053-5.371,6.132
		c-0.882,1.032-1.751,2.078-2.591,3.144C2.178,45.574,1.326,46.645,0.708,47.855z"/>
	<path fill="#FF9292" d="M25.907,0.503C25.13,0.57,24.45,0.981,23.785,1.35c-0.661,0.39-1.3,0.816-1.923,1.265
		c-1.256,0.884-2.467,1.833-3.652,2.812c-2.368,1.958-4.662,4.007-6.863,6.152C9.125,13.708,6.994,15.927,5,18.263
		c-0.994,1.169-1.949,2.377-2.806,3.65c-0.429,0.634-0.834,1.29-1.176,1.975c-0.333,0.684-0.633,1.409-0.681,2.181
		c0.019-0.771,0.291-1.518,0.601-2.219c0.316-0.705,0.696-1.38,1.105-2.037c0.827-1.302,1.764-2.534,2.738-3.732
		c1.959-2.387,4.1-4.614,6.305-6.766c2.229-2.128,4.53-4.19,6.943-6.106c1.214-0.956,2.447-1.884,3.729-2.743
		c0.643-0.423,1.301-0.829,1.98-1.195C24.42,0.927,25.126,0.537,25.907,0.503z"/>
	<path opacity="0.55" fill="#FF9292" d="M25.661,0.01C23.322-0.011,14.346,7.223,7.684,14.275l20.356,3.702
		C37.099,8.867,45.539,1.117,48.375,0.01C45.177-0.024,29.479,0.043,25.661,0.01z"/>
</g>
</svg>
