<?xml version="1.0" encoding="utf-8"?>
<!-- Generator: Adobe Illustrator 16.0.0, SVG Export Plug-In . SVG Version: 6.00 Build 0)  -->
<!DOCTYPE svg PUBLIC "-//W3C//DTD SVG 1.1//EN" "http://www.w3.org/Graphics/SVG/1.1/DTD/svg11.dtd">
<svg version="1.1" id="Capa_1" xmlns="http://www.w3.org/2000/svg" xmlns:xlink="http://www.w3.org/1999/xlink" x="0px" y="0px"
	 width="720px" height="726.391px" viewBox="0 0 720 726.391" enable-background="new 0 0 720 726.391" xml:space="preserve">
<g>
	<path fill="#49BFA5" d="M68.571,332.104h582.857v377.144H68.571V332.104z"/>
	<path fill="#49BFA5" d="M17.143,177.818h685.714v205.715H17.143V177.818z"/>
	<g>
		<path fill="#FFFFFF" d="M308.571,332.104h102.857v377.144H308.571V332.104z"/>
	</g>
	<path fill="#FFFFFF" d="M291.429,177.818h137.143v205.715H291.429V177.818z"/>
	<path d="M-0.001,160.677v240h51.43V726.39h617.143V400.677h51.43v-240h-91.973c15.105-17.603,23.406-40.028,23.4-63.223
		c-0.011-53.833-43.661-97.467-97.496-97.453c-25.839,0.007-50.618,10.271-68.893,28.539L360,153.58L234.96,28.54
		C196.888-9.521,135.171-9.512,97.109,28.56C78.833,46.844,68.566,71.636,68.57,97.488c-0.007,23.18,8.289,45.597,23.383,63.188
		H-0.001L-0.001,160.677z M34.285,366.39V194.962h230V366.39H34.285z M421.429,366.39H298.571V194.962h122.857V366.39z
		 M85.713,692.104V400.677h195.716v291.429L85.713,692.104L85.713,692.104z M315.714,692.104V400.677h88.57v291.429L315.714,692.104
		L315.714,692.104z M634.286,692.104H438.571V400.677h195.715V692.104z M685.714,366.39h-230V194.962h230V366.39z M509.279,52.778
		c24.683-24.673,64.688-24.666,89.362,0.014c11.852,11.854,18.505,27.933,18.501,44.695c-0.028,34.887-28.303,63.16-63.188,63.188
		H401.383L509.279,52.778z M102.856,97.453c-0.234-25.625,15.238-48.779,39-58.371c7.866-3.229,16.286-4.895,24.789-4.902
		c16.606-0.034,32.514,6.679,44.074,18.6l107.896,107.897H166.045C131.153,160.63,102.885,132.345,102.856,97.453z"/>
</g>
</svg>
