<?xml version="1.0" encoding="utf-8"?>
<!-- Generator: Adobe Illustrator 16.0.0, SVG Export Plug-In . SVG Version: 6.00 Build 0)  -->
<!DOCTYPE svg PUBLIC "-//W3C//DTD SVG 1.1//EN" "http://www.w3.org/Graphics/SVG/1.1/DTD/svg11.dtd">
<svg version="1.1" id="Capa_1" xmlns="http://www.w3.org/2000/svg" xmlns:xlink="http://www.w3.org/1999/xlink" x="0px" y="0px"
	 width="960px" height="960px" viewBox="0 0 960 960" enable-background="new 0 0 960 960" xml:space="preserve">
<g>
	<circle fill="#49BFA5" cx="481" cy="480" r="461.25"/>
	<circle fill="#FFFFFF" cx="481" cy="480" r="294.375"/>
	<circle fill="#DC4A4A" cx="481" cy="480" r="276.925"/>
	<g>
		<path fill="#FFFFFF" d="M277.36,267.437c52.792-50.588,124.384-81.705,203.25-81.808l0.013-0.004V26.25l-31.882-6.36
			c-116.174,8.029-220.491,59.068-297.173,137.315l9.452,2.86L270.963,270.01L277.36,267.437z"/>
		<path fill="#FFFFFF" d="M689.131,688.177c-28.182,28.176-62.052,50.659-99.737,65.594l-0.006,0.003l-0.007,0.002
			c-33.542,13.29-70.108,20.6-108.381,20.6c-0.118,0-0.236-0.004-0.354-0.004l-0.023,0.004v160.739l14.146,5.914
			c120.166-3.522,228.783-53.012,308.915-131.487v-6.809L689.131,688.177z"/>
		<path fill="#FFFFFF" d="M690.647,280.195c50.588,52.79,81.705,124.384,81.809,203.248l0.005,0.013h159.375l6.36-31.883
			c-8.029-116.171-59.068-220.489-137.315-297.17l-2.861,9.452L688.075,273.799L690.647,280.195z"/>
		<path fill="#FFFFFF" d="M269.907,691.965c-28.175-28.183-50.659-62.053-65.593-99.737l-0.004-0.006l-0.002-0.007
			c-13.29-33.544-20.599-70.108-20.599-108.381c0-0.118,0.003-0.236,0.003-0.354l-0.003-0.024H22.969l-5.914,14.147
			c3.523,120.166,53.012,228.783,131.488,308.915h6.808L269.907,691.965z"/>
	</g>
	<path d="M820.411,140.589C729.751,49.927,609.213,0,481,0S232.25,49.927,141.589,140.589C50.928,231.249,1,351.786,1,480
		c0,128.212,49.928,248.75,140.589,339.409C232.25,910.073,352.787,960,481,960s248.751-49.929,339.411-140.591
		C911.072,728.75,961,608.212,961,480C961,351.786,911.072,231.249,820.411,140.589z M806.688,779.22l-91.555-91.554
		c45.085-50.772,73.938-116.247,78.37-188.232h129.545C918.374,607.067,875.078,704.842,806.688,779.22z M38.95,499.432h129.545
		c4.427,71.943,33.251,137.386,78.291,188.146l-91.556,91.557C86.888,704.767,43.625,607.026,38.95,499.432z M688.579,245.788
		c-51.011-45.262-116.846-74.15-189.208-78.358V37.91c108.012,4.435,206.151,47.755,280.765,116.32L688.579,245.788z
		 M461.871,167.477c-72.104,4.367-137.692,33.242-188.537,78.388l-91.555-91.554c74.45-68.453,172.338-111.766,280.092-116.372
		V167.477z M481,204.375c151.979,0,275.625,123.645,275.625,275.625c0,75.396-30.44,143.809-79.663,193.62
		c-0.43,0.358-0.852,0.731-1.254,1.136c-0.401,0.4-0.771,0.818-1.127,1.247C624.771,725.2,556.375,755.625,481,755.625
		c-151.979,0-275.625-123.646-275.625-275.625C205.375,328.02,329.021,204.375,481,204.375z M273.297,714.103
		c50.851,45.165,116.452,74.052,188.574,78.42v129.536c-107.771-4.609-205.674-47.934-280.127-116.405L273.297,714.103z
		 M499.371,792.572c72.379-4.209,138.229-33.109,189.244-78.392l91.554,91.555c-74.615,68.585-172.771,111.918-280.8,116.354
		V792.572H499.371L499.371,792.572z M894.649,461.932c-3.229-60.752-18.896-121.162-45.59-175.44
		c-4.57-9.297-15.812-13.121-25.099-8.553c-9.293,4.569-13.121,15.81-8.552,25.099c24.18,49.173,38.475,103.846,41.664,158.896
		H793.59c-4.146-72.54-33.1-138.536-78.487-189.635l91.553-91.553c68.695,74.695,112.076,172.997,116.444,281.188L894.649,461.932
		L894.649,461.932z M155.264,180.83l91.555,91.555c-45.343,51.086-74.265,117.051-78.411,189.547H38.899
		C43.266,353.783,86.614,255.516,155.264,180.83z"/>
	<path d="M789.319,224.64c-8.482,5.938-10.547,17.629-4.608,26.113l0.019,0.027c3.646,5.207,9.453,7.989,15.358,7.989
		c3.714,0,7.47-1.103,10.745-3.396c8.482-5.938,10.537-17.646,4.6-26.128C809.494,220.766,797.804,218.7,789.319,224.64z"/>
	<path fill="#FFFFFF" d="M477.368,527.153c0,42.236,34.361,76.599,76.6,76.599c42.236,0,76.599-34.361,76.599-76.599v-94.306
		c0-42.236-34.361-76.597-76.599-76.597c-42.236,0-76.6,34.359-76.6,76.597V527.153L477.368,527.153z M514.868,432.847
		c0-21.56,17.539-39.097,39.1-39.097c21.562,0,39.099,17.537,39.099,39.097v94.306c0,21.56-17.539,39.098-39.099,39.098
		c-21.559,0-39.1-17.538-39.1-39.098V432.847z"/>
	<path fill="#FFFFFF" d="M331.435,375v110.644c0,7.582,4.57,14.42,11.575,17.323c7.009,2.903,15.071,1.297,20.435-4.065
		c7.451-7.451,17.355-11.554,27.893-11.554s20.442,4.103,27.895,11.556c7.451,7.451,11.555,17.355,11.555,27.894
		s-4.104,20.442-11.557,27.893c-15.381,15.383-40.407,15.381-55.784,0c-7.322-7.322-19.194-7.322-26.52,0
		c-7.321,7.321-7.321,19.194,0,26.518c15,15,34.706,22.5,54.411,22.5c19.704,0,39.41-7.5,54.41-22.5
		c14.533-14.531,22.538-33.855,22.538-54.409c0-20.555-8.005-39.878-22.538-54.409c-14.533-14.533-33.856-22.539-54.41-22.539
		c-7.703,0-15.232,1.125-22.401,3.295V393.75h80.601c10.354,0,18.75-8.396,18.75-18.75c0-10.356-8.396-18.75-18.75-18.75h-99.351
		C339.829,356.25,331.435,364.644,331.435,375z"/>
</g>
</svg>
