<?xml version="1.0" encoding="utf-8"?>
<!-- Generator: Adobe Illustrator 16.0.0, SVG Export Plug-In . SVG Version: 6.00 Build 0)  -->
<!DOCTYPE svg PUBLIC "-//W3C//DTD SVG 1.1//EN" "http://www.w3.org/Graphics/SVG/1.1/DTD/svg11.dtd">
<svg version="1.1" id="Layer_1" xmlns="http://www.w3.org/2000/svg" xmlns:xlink="http://www.w3.org/1999/xlink" x="0px" y="0px"
	 width="384px" height="496px" viewBox="0 0 384 496" enable-background="new 0 0 384 496" xml:space="preserve">
<g>
	<path fill="#E6E9ED" d="M258.398,85.039C322.719,111.199,368,174.321,368,248c0,97.199-78.801,176-176,176S16,345.199,16,248
		c0-73.68,45.281-136.801,109.602-162.961L112,8h160L258.398,85.039z"/>
	<path fill="#49BFA5" d="M376,456v32H8v-32c0-17.68,14.32-32,32-32h304C361.68,424,376,438.321,376,456z"/>
	<path fill="#49BFA5" d="M336,248h-96c0-13.281-5.359-25.199-14.078-33.922l67.918-67.918C319.84,172.239,336,208.239,336,248z"/>
	<path fill="#FCD770" d="M240,248h96c0,39.762-16.16,75.762-42.16,101.84l-67.918-67.918C234.641,273.199,240,261.281,240,248z"/>
	<path fill="#FFEAA7" d="M293.84,146.16l-67.918,67.918C220.879,209.121,192,199.55,192,199.55V104
		C231.762,104,267.762,120.16,293.84,146.16z"/>
	<path fill="#49BFA5" d="M225.922,281.922l67.918,67.918C267.762,375.84,231.762,392,192,392v-94.783l16-4.018
		C214.801,290.801,220.879,286.879,225.922,281.922z"/>
	<path fill="#DC4A4A" d="M225.68,46.321c3.922,3.918,6.32,9.359,6.32,15.281c0,6.559-2.961,12.797-8.078,16.879L192,104
		l-31.922-25.52C154.961,74.399,152,68.16,152,61.602C152,49.68,161.68,40,173.602,40h1.438c5.762,0,11.199,2.238,15.281,6.32
		L192,48l1.68-1.68c4.082-4.082,9.52-6.32,15.281-6.32h1.438C216.32,40,221.762,42.399,225.68,46.321z"/>
	<path fill="#FFEAA7" d="M192,298.92V392c-39.762,0-75.762-16.16-101.84-42.16l67.918-67.918
		c5.043,4.957,11.121,8.879,17.922,11.277L192,298.92z"/>
	<path fill="#49BFA5" d="M192,104v90.07c0,0-28.879,15.051-33.922,20.008L90.16,146.16C116.238,120.16,152.238,104,192,104z"/>
	<path fill="#49BFA5" d="M158.078,281.922L90.16,349.84C64.16,323.762,48,287.762,48,248h96
		C144,261.281,149.359,273.199,158.078,281.922z"/>
	<path fill="#FCD770" d="M90.16,146.16l67.918,67.918C149.359,222.801,144,234.719,144,248H48
		C48,208.239,64.16,172.239,90.16,146.16z"/>
	<path d="M344,416h-77.098C331.121,387.258,376,322.793,376,248c0-72.969-42.406-138.152-108.609-167.848L281.535,0h-179.07
		l14.145,80.152C50.406,109.848,8,175.031,8,248c0,74.793,44.879,139.258,109.098,168H40c-22.055,0-40,17.945-40,40v40h384v-40
		C384,433.946,366.055,416,344,416z M24,248c0-68.602,41.063-129.664,104.609-155.594l5.984-2.438L121.535,16h140.93l-13.059,73.977
		l5.984,2.438C318.938,118.336,360,179.399,360,248c0,92.641-75.359,168-168,168S24,340.641,24,248z M368,480H16v-24
		c0-13.23,10.77-24,24-24h304c13.23,0,24,10.77,24,24V480z"/>
	<path d="M212.816,97.602l16.078-12.867C235.953,79.078,240,70.656,240,61.617C240,45.289,226.711,32,210.383,32h-1.43
		c-6.152,0-12.016,1.863-16.953,5.328C187.063,33.864,181.199,32,175.047,32h-1.43C157.289,32,144,45.289,144,61.617
		c0,9.039,4.047,17.473,11.113,23.117l16.07,12.867C97.215,107.793,40,171.266,40,248c0,83.816,68.184,152,152,152
		s152-68.184,152-152C344,171.266,286.793,107.801,212.816,97.602z M225.48,203.207C214.384,192.94,200,192.303,200,192.303v-79.897
		c31.465,1.84,60.039,14.379,82.199,34.09L225.48,203.207z M184,192.091c0,0-14.841,0.849-25.48,11.116l-56.719-56.719
		c22.16-19.711,50.727-32.242,82.199-34.09V192.091z M147.246,214.559c-5.535,7.395-9.254,16.09-10.613,25.441H56.406
		c1.84-31.465,14.379-60.039,34.09-82.199L147.246,214.559z M136.633,256c1.359,9.352,5.086,18.047,10.613,25.441l-56.758,56.758
		c-19.711-22.16-32.242-50.727-34.09-82.199H136.633z M158.52,292.793c10.53,8.764,25.48,11.904,25.48,11.904v78.896
		c-31.465-1.84-60.039-14.379-82.199-34.09L158.52,292.793z M200,304.771c0,0,16.091-2.338,25.48-11.978l56.719,56.719
		c-22.16,19.711-50.727,32.242-82.199,34.09V304.771z M236.754,281.442c5.535-7.395,9.254-16.09,10.613-25.441h80.227
		c-1.84,31.465-14.379,60.039-34.09,82.199L236.754,281.442z M247.367,240c-1.359-9.352-5.086-18.047-10.613-25.441l56.758-56.758
		c19.711,22.16,32.242,50.727,34.09,82.199H247.367z M160,61.617C160,54.106,166.105,48,173.617,48h1.43
		c3.641,0,7.059,1.414,9.633,3.992l7.32,7.32l7.328-7.328c2.566-2.57,5.992-3.984,9.625-3.984h1.43
		C217.895,48,224,54.106,224,61.617c0,4.16-1.863,8.031-5.105,10.629L192,93.754l-26.887-21.516
		C161.863,69.649,160,65.77,160,61.617z"/>
	<path d="M336,448h16v16h-16V448z"/>
	<path d="M304,448h16v16h-16V448z"/>
	<path d="M272,448h16v16h-16V448z"/>
	<circle fill="#FCD770" cx="192" cy="248.638" r="42.959"/>
</g>
</svg>
